<svg width="98" height="83" viewBox="0 0 98 83" fill="none" xmlns="http://www.w3.org/2000/svg">
<path d="M37.6829 32.5201H45.7523C44.8266 30.3864 43.3084 28.563 41.3777 27.2661C39.447 25.9692 37.1849 25.2533 34.8596 25.2031C32.5343 25.153 30.2434 25.7708 28.2587 26.9833C26.2739 28.1958 24.6785 29.9521 23.6617 32.0439C22.6449 34.1357 22.2494 36.4752 22.5221 38.785C22.7947 41.0948 23.7241 43.278 25.2 45.0755C26.6759 46.8731 28.6363 48.2096 30.8489 48.9267C33.0614 49.6437 35.4332 49.7112 37.6829 49.121V32.5201Z" fill="#169447"/>
<path d="M37.6829 54.1484C34.4735 54.6081 31.1995 54.137 28.2499 52.7909C25.3004 51.4449 22.7992 49.2804 21.0435 46.5547C19.2877 43.829 18.3513 40.6567 18.3454 37.4145C18.3396 34.1723 19.2644 30.9965 21.0102 28.2645C22.756 25.5324 25.2493 23.3589 28.194 22.0021C31.1387 20.6453 34.4109 20.1623 37.622 20.6104C40.8331 21.0585 43.848 22.4189 46.3088 24.53C48.7695 26.6411 50.5725 29.4142 51.5036 32.5198H53.5907C52.6293 28.5323 50.5133 24.9168 47.5075 22.1258C44.5017 19.3347 40.7396 17.4921 36.6919 16.8283C32.6441 16.1646 28.4905 16.7092 24.7508 18.3942C21.011 20.0791 17.8512 22.8294 15.6666 26.3011C13.4821 29.7727 12.3698 33.8115 12.469 37.9121C12.5682 42.0127 13.8744 45.993 16.2243 49.355C18.5741 52.717 21.8632 55.3113 25.6801 56.8135C29.4969 58.3156 33.672 58.6588 37.6829 57.8001V54.1484Z" fill="#169447"/>
<path d="M37.6829 62.1911C32.7721 63.1781 27.6788 62.6851 23.0484 60.7747C18.4181 58.8643 14.459 55.6225 11.6728 51.4599C8.8866 47.2973 7.39873 42.4014 7.39768 37.3924C7.39663 32.3834 8.88245 27.4868 11.6669 23.3231C14.4513 19.1593 18.4091 15.9158 23.0386 14.0034C27.6682 12.0911 32.7613 11.596 37.6725 12.581C42.5837 13.5659 47.092 15.9865 50.6262 19.536C54.1604 23.0856 56.5614 27.6043 57.5251 32.5197H59.0068C58.0194 26.811 55.3341 21.5325 51.3015 17.3729C47.2689 13.2133 42.0761 10.3658 36.4008 9.20198C30.7254 8.03813 24.831 8.61197 19.4867 10.8486C14.1424 13.0853 9.59633 16.8809 6.44173 21.7402C3.28713 26.5995 1.67046 32.2968 1.80267 38.0888C1.93489 43.8807 3.80985 49.4984 7.1829 54.2086C10.556 58.9189 15.2705 62.5031 20.7113 64.4936C26.1521 66.4841 32.0665 66.7883 37.6829 65.3667V62.1911Z" fill="#212255"/>
<path d="M46.4324 37.0449L48.4615 44.7831H47.4684L46.2405 40.0553L44.1268 45.0689L42.0061 40.0138L40.7617 44.7831H39.7742L41.8033 37.0449L44.126 42.5817L46.4324 37.0449Z" fill="#212255"/>
<path d="M49.4569 38.3919C49.4561 38.29 49.4763 38.1889 49.5163 38.0951C49.5563 38.0014 49.6153 37.9168 49.6894 37.8469C49.7613 37.773 49.8475 37.7145 49.9427 37.675C50.0378 37.6354 50.14 37.6155 50.2431 37.6166C50.4487 37.6166 50.6459 37.6983 50.7913 37.8437C50.9367 37.9891 51.0184 38.1863 51.0184 38.3919C51.0184 38.5975 50.9367 38.7947 50.7913 38.9401C50.6459 39.0855 50.4487 39.1672 50.2431 39.1672C50.1403 39.1685 50.0383 39.1491 49.9431 39.1101C49.848 39.0711 49.7617 39.0132 49.6894 38.9401C49.6148 38.8699 49.5556 38.7848 49.5155 38.6905C49.4755 38.5961 49.4555 38.4944 49.4569 38.3919ZM49.7419 39.9723H50.7435V44.7831H49.7419V39.9723Z" fill="#212255"/>
<path d="M56.1003 43.3137V44.4744C55.6472 44.7515 55.1292 44.9044 54.5982 44.9176C53.9441 44.9006 53.3212 44.6337 52.8578 44.1717C52.3943 43.7097 52.1254 43.0877 52.1063 42.4335C52.0961 42.0894 52.157 41.7468 52.2852 41.4272C52.4133 41.1075 52.6059 40.8178 52.8511 40.576C53.0964 40.3328 53.3887 40.142 53.71 40.0152C54.0313 39.8884 54.3751 39.8282 54.7204 39.8382C55.2012 39.8468 55.6735 39.9666 56.1003 40.1883V41.3192C55.6761 41.0204 55.1746 40.8504 54.6562 40.8297C54.2453 40.8265 53.8498 40.9858 53.5559 41.2729C53.4079 41.4023 53.2893 41.5618 53.208 41.7408C53.1267 41.9198 53.0846 42.114 53.0845 42.3106C53.0792 42.5187 53.1156 42.7258 53.1916 42.9196C53.2676 43.1134 53.3816 43.29 53.5269 43.4391C53.6653 43.5871 53.8332 43.7043 54.0198 43.7832C54.2064 43.8621 54.4074 43.901 54.61 43.8972C55.154 43.8565 55.6733 43.6532 56.1003 43.3137Z" fill="#212255"/>
<path d="M58.4525 39.9724V40.9638C58.6199 40.6402 58.8437 40.349 59.1135 40.104C59.3536 39.9188 59.6516 39.8247 59.9546 39.8385C60.0967 39.8456 60.2375 39.869 60.3743 39.9082L60.0658 40.9231C59.9393 40.8936 59.8108 40.874 59.6813 40.8644C59.5209 40.8609 59.3617 40.891 59.2137 40.9527C59.0657 41.0145 58.9324 41.1066 58.8222 41.2231C58.7078 41.3417 58.6182 41.482 58.5588 41.6357C58.4993 41.7894 58.4712 41.9534 58.476 42.1182V44.7832H57.4626V39.9724H58.4525Z" fill="#212255"/>
<path d="M61.0254 42.3572C61.0274 42.0274 61.0975 41.7016 61.2313 41.4001C61.3651 41.0986 61.5598 40.8281 61.8031 40.6054C62.0333 40.3635 62.3101 40.1709 62.6169 40.0391C62.9236 39.9074 63.2539 39.8392 63.5878 39.8387C63.9248 39.8365 64.2588 39.9023 64.5699 40.032C64.881 40.1617 65.1627 40.3527 65.3984 40.5936C65.6428 40.8177 65.8379 41.0903 65.9712 41.3939C66.1046 41.6976 66.1733 42.0256 66.1729 42.3572C66.1735 42.6911 66.1064 43.0216 65.9759 43.3288C65.8453 43.6361 65.654 43.9138 65.4133 44.1451C65.1897 44.3879 64.9183 44.5819 64.6161 44.7147C64.314 44.8476 63.9876 44.9166 63.6575 44.9173C63.3139 44.9206 62.9731 44.8546 62.6554 44.7235C62.3378 44.5923 62.0498 44.3985 61.8085 44.1537C61.5605 43.925 61.3629 43.6471 61.228 43.3378C61.0932 43.0286 61.0242 42.6946 61.0254 42.3572ZM65.1948 42.3604C65.1956 42.1599 65.1546 41.9615 65.0744 41.7779C64.9942 41.5942 64.8765 41.4293 64.7288 41.2937C64.5841 41.148 64.4116 41.0329 64.2215 40.9551C64.0314 40.8774 63.8276 40.8386 63.6223 40.8411C63.4124 40.8381 63.2041 40.8772 63.0096 40.956C62.8151 41.0348 62.6384 41.1518 62.4899 41.3C62.3385 41.4393 62.2181 41.6088 62.1364 41.7975C62.0546 41.9862 62.0134 42.19 62.0153 42.3956C62.0157 42.5968 62.0588 42.7956 62.1417 42.9789C62.2246 43.1623 62.3454 43.3259 62.4961 43.4591C62.6447 43.6053 62.8207 43.7207 63.0139 43.7987C63.2071 43.8768 63.4139 43.916 63.6223 43.9141C63.8279 43.9151 64.0315 43.8743 64.2208 43.794C64.4101 43.7138 64.5811 43.5958 64.7234 43.4474C64.8723 43.3082 64.991 43.1399 65.0721 42.9529C65.1532 42.7659 65.195 42.5642 65.1948 42.3604Z" fill="#212255"/>
<path d="M71.0988 43.3137V44.4744C70.6458 44.7515 70.1277 44.9044 69.5968 44.9176C68.9426 44.9006 68.3198 44.6337 67.8563 44.1717C67.3928 43.7097 67.1239 43.0877 67.1049 42.4335C67.0947 42.0894 67.1556 41.7468 67.2837 41.4272C67.4118 41.1075 67.6045 40.8178 67.8496 40.576C68.095 40.3328 68.3872 40.142 68.7085 40.0152C69.0299 39.8884 69.3736 39.8282 69.719 39.8382C70.1998 39.8468 70.6721 39.9666 71.0988 40.1883V41.3192C70.6746 41.0204 70.1732 40.8504 69.6547 40.8297C69.2439 40.8265 68.8483 40.9858 68.5544 41.2729C68.4065 41.4023 68.2878 41.5618 68.2065 41.7408C68.1252 41.9198 68.0831 42.114 68.083 42.3106C68.0777 42.5187 68.1142 42.7258 68.1902 42.9196C68.2662 43.1134 68.3802 43.29 68.5255 43.4391C68.6638 43.5871 68.8318 43.7043 69.0183 43.7832C69.2049 43.8621 69.406 43.901 69.6085 43.8972C70.1526 43.8565 70.6718 43.6532 71.0988 43.3137Z" fill="#212255"/>
<path d="M73.4508 39.9724V40.9638C73.6182 40.6401 73.842 40.3489 74.1118 40.104C74.3519 39.9188 74.6499 39.8247 74.9529 39.8385C75.095 39.8456 75.2358 39.869 75.3726 39.9082L75.0641 40.9231C74.9376 40.8936 74.8091 40.874 74.6796 40.8644C74.5193 40.8609 74.36 40.891 74.212 40.9527C74.064 41.0145 73.9307 41.1066 73.8205 41.2231C73.7061 41.3417 73.6165 41.482 73.5571 41.6357C73.4976 41.7894 73.4695 41.9534 73.4743 42.1182V44.7832H72.4609V39.9724H73.4508Z" fill="#212255"/>
<path d="M81.3283 42.573H77.2294C77.2545 42.7845 77.3212 42.9889 77.4256 43.1745C77.53 43.3601 77.6701 43.5232 77.8379 43.6545C78.1368 43.8765 78.4993 43.9962 78.8716 43.9959C79.1516 43.9976 79.4282 43.9336 79.679 43.809C79.9298 43.6844 80.1479 43.5027 80.3157 43.2786L81.055 43.8385C80.7978 44.1848 80.4606 44.4638 80.0722 44.6516C79.6839 44.8394 79.2558 44.9304 78.8246 44.9169C78.4912 44.9251 78.1596 44.8641 77.8509 44.7376C77.5422 44.6112 77.2631 44.4221 77.0313 44.1823C76.7941 43.9425 76.6079 43.6573 76.4838 43.3437C76.3597 43.0301 76.3004 42.6947 76.3092 42.3576C76.306 42.0286 76.369 41.7023 76.4947 41.3982C76.6204 41.0941 76.8061 40.8184 77.0407 40.5877C77.2723 40.3496 77.5495 40.1606 77.8557 40.0318C78.1619 39.9031 78.4909 39.8372 78.823 39.8383C79.1552 39.8393 79.4838 39.9071 79.7892 40.0378C80.0946 40.1684 80.3706 40.3592 80.6008 40.5987C80.8493 40.8615 81.0419 41.1719 81.1669 41.5113C81.292 41.8506 81.3469 42.2118 81.3283 42.573ZM77.3343 41.7624H80.2687C80.156 41.4709 79.9577 41.2202 79.7 41.0433C79.4423 40.8664 79.1372 40.7715 78.8246 40.771C78.5036 40.7592 78.1871 40.8485 77.9196 41.0264C77.6522 41.2043 77.4475 41.4618 77.3343 41.7624Z" fill="#212255"/>
<path d="M86.761 37.2145H87.7626V44.7835H86.7727V43.7803C86.5909 44.121 86.3206 44.4064 85.9902 44.6065C85.6599 44.8066 85.2817 44.914 84.8955 44.9174C84.5884 44.9184 84.2848 44.8514 84.0066 44.7213C83.7284 44.5912 83.4824 44.4011 83.2862 44.1648C82.8412 43.6693 82.6015 43.0231 82.6158 42.3573C82.6041 41.6994 82.8487 41.0627 83.298 40.5819C83.4991 40.3476 83.7487 40.1597 84.0295 40.0313C84.3103 39.9028 84.6157 39.8369 84.9245 39.838C85.2996 39.8374 85.6667 39.9469 85.9802 40.1528C86.3034 40.3593 86.5714 40.6416 86.761 40.9751V37.2145ZM86.8776 42.3691C86.8723 41.9469 86.7022 41.5435 86.4036 41.245C86.1049 40.9465 85.7015 40.7766 85.2793 40.7715C85.0667 40.7671 84.8555 40.8059 84.6584 40.8856C84.4614 40.9653 84.2825 41.0842 84.1328 41.2351C83.9144 41.4607 83.7665 41.7451 83.7072 42.0534C83.6479 42.3618 83.6798 42.6807 83.799 42.9712C83.9181 43.2618 84.1194 43.5112 84.3781 43.6891C84.6369 43.867 84.9419 43.9656 85.2558 43.9729C85.469 43.977 85.6809 43.9377 85.8785 43.8575C86.0761 43.7772 86.2554 43.6577 86.4054 43.5062C86.5582 43.3594 86.6791 43.1826 86.7603 42.9869C86.8416 42.7913 86.8815 42.5809 86.8776 42.3691Z" fill="#212255"/>
<path d="M89.3636 38.3919C89.3628 38.2899 89.3831 38.1888 89.4232 38.095C89.4634 38.0012 89.5226 37.9167 89.597 37.8469C89.6687 37.773 89.7547 37.7145 89.8497 37.6749C89.9448 37.6353 90.0469 37.6155 90.1499 37.6166C90.3555 37.6166 90.5527 37.6983 90.6981 37.8437C90.8435 37.9891 90.9252 38.1863 90.9252 38.3919C90.9252 38.5976 90.8435 38.7948 90.6981 38.9402C90.5527 39.0855 90.3555 39.1672 90.1499 39.1672C90.0472 39.1686 89.9452 39.1492 89.8502 39.1102C89.7552 39.0711 89.6691 39.0133 89.597 38.9401C89.5221 38.87 89.4626 38.785 89.4224 38.6906C89.3823 38.5963 89.3622 38.4945 89.3636 38.3919ZM89.6487 39.9723H90.6503V44.7831H89.6487V39.9723Z" fill="#212255"/>
<path d="M92.7287 38.5728H93.742V39.9722H94.7437V40.8994H93.742V44.783H92.7287V40.8994H91.9307V39.9605H92.7287V38.5728Z" fill="#212255"/>
<path d="M40.4666 51.2869H42.0735C42.7741 51.256 43.464 51.4669 44.0275 51.8844C44.2657 52.0613 44.4583 52.2923 44.5894 52.5584C44.7206 52.8245 44.7865 53.1181 44.7816 53.4147C44.7864 53.8991 44.6127 54.3682 44.2937 54.7327C43.8869 55.1584 43.353 55.4406 42.7721 55.537L44.9273 58.7165H43.7643L41.707 55.6608H41.4799V58.7165H40.4666V51.2869ZM41.4799 52.1852V54.7742C42.9741 54.8055 43.7215 54.3722 43.722 53.4742C43.7337 53.1929 43.6401 52.9174 43.4597 52.7013C43.2753 52.4954 43.031 52.3527 42.7611 52.2932C42.3395 52.209 41.9097 52.1728 41.4799 52.1852Z" fill="#212255"/>
<path d="M50.8539 56.5061H46.755C46.7801 56.7176 46.8468 56.922 46.9512 57.1076C47.0557 57.2932 47.1958 57.4563 47.3635 57.5876C47.6624 57.8096 48.0249 57.9293 48.3973 57.929C48.6773 57.9307 48.9538 57.8667 49.2046 57.7421C49.4554 57.6175 49.6735 57.4358 49.8414 57.2117L50.5806 57.7716C50.3234 58.1179 49.9863 58.3969 49.5979 58.5847C49.2095 58.7725 48.7814 58.8635 48.3503 58.85C48.0168 58.8582 47.6852 58.7972 47.3766 58.6707C47.0679 58.5443 46.7888 58.3552 46.5569 58.1154C46.3198 57.8756 46.1336 57.5904 46.0095 57.2768C45.8854 56.9632 45.826 56.6278 45.8348 56.2907C45.8316 55.9617 45.8947 55.6354 46.0204 55.3313C46.146 55.0272 46.3317 54.7516 46.5663 54.5208C46.7979 54.2827 47.0751 54.0937 47.3813 53.9649C47.6875 53.8362 48.0165 53.7704 48.3487 53.7714C48.6809 53.7724 49.0094 53.8402 49.3148 53.9709C49.6202 54.1015 49.8963 54.2923 50.1264 54.5318C50.3749 54.7946 50.5675 55.105 50.6925 55.4444C50.8176 55.7837 50.8725 56.1449 50.8539 56.5061ZM46.86 55.6955H49.7944C49.6816 55.404 49.4834 55.1533 49.2257 54.9764C48.968 54.7995 48.6628 54.7046 48.3503 54.7041C48.0293 54.6923 47.7127 54.7816 47.4453 54.9595C47.1779 55.1374 46.9731 55.3949 46.86 55.6955Z" fill="#212255"/>
<path d="M56.2576 53.9057H57.2475V58.5238C57.2536 58.8453 57.1946 59.1648 57.074 59.4629C56.9534 59.761 56.7738 60.0316 56.5458 60.2585C56.3276 60.4884 56.064 60.6706 55.7718 60.7935C55.4795 60.9165 55.165 60.9775 54.848 60.9727C54.3537 60.9757 53.8696 60.8327 53.4564 60.5615C53.0136 60.2618 52.6854 59.821 52.5252 59.3109H53.5731C53.6982 59.5492 53.8868 59.7483 54.118 59.8863C54.3492 60.0242 54.614 60.0955 54.8832 60.0924C55.065 60.0952 55.2454 60.06 55.4128 59.9893C55.5803 59.9185 55.7312 59.8136 55.8559 59.6813C55.9858 59.552 56.0884 59.3979 56.1574 59.2281C56.2264 59.0582 56.2605 58.8763 56.2576 58.693V57.783C56.0665 58.1049 55.7957 58.3722 55.4713 58.5591C55.1469 58.7461 54.7799 58.8464 54.4055 58.8504C54.0988 58.8487 53.7961 58.7797 53.519 58.6481C53.2418 58.5166 52.9969 58.3258 52.8017 58.0892C52.3518 57.5992 52.1068 56.9554 52.1172 56.2903C52.1041 55.6341 52.3425 54.9978 52.7837 54.5118C52.9779 54.2797 53.2208 54.0931 53.4951 53.9651C53.7694 53.8371 54.0684 53.7708 54.3711 53.771C54.7606 53.7713 55.1425 53.8786 55.4752 54.0812C55.8079 54.2838 56.0786 54.5739 56.2576 54.9199V53.9057ZM56.397 56.3021C56.402 56.0912 56.3628 55.8816 56.282 55.6867C56.2012 55.4919 56.0806 55.316 55.9279 55.1705C55.7745 55.021 55.5927 54.9038 55.3933 54.8258C55.1938 54.7477 54.9807 54.7105 54.7666 54.7163C54.5581 54.7159 54.3517 54.7575 54.1597 54.8386C53.9677 54.9198 53.794 55.0388 53.649 55.1885C53.4972 55.3267 53.3757 55.495 53.2924 55.6827C53.2091 55.8703 53.1657 56.0733 53.165 56.2786C53.1625 56.4935 53.2035 56.7066 53.2856 56.9051C53.3677 57.1037 53.4892 57.2835 53.6428 57.4338C53.7885 57.5883 53.9646 57.7111 54.16 57.7944C54.3554 57.8776 54.5659 57.9196 54.7783 57.9177C55.2072 57.918 55.6186 57.748 55.9221 57.445C56.2257 57.1421 56.3965 56.731 56.397 56.3021Z" fill="#212255"/>
<path d="M58.9007 53.9054H59.9141V56.6174C59.9141 57.453 60.2809 57.8707 61.0144 57.8704C61.1605 57.877 61.3062 57.8502 61.4403 57.7922C61.5745 57.7341 61.6938 57.6462 61.7889 57.5352C61.9917 57.2737 62.093 56.9477 62.074 56.6174V53.9054H63.0756V56.7803C63.0849 57.0553 63.0375 57.3292 62.9363 57.5851C62.8351 57.8409 62.6824 58.0732 62.4875 58.2674C62.0758 58.6423 61.5391 58.8501 60.9823 58.8501C60.4255 58.8501 59.8888 58.6423 59.4771 58.2674C59.2832 58.0658 59.1322 57.8269 59.0331 57.5652C58.934 57.3036 58.889 57.0246 58.9007 56.745V53.9054Z" fill="#212255"/>
<path d="M65.6904 51.1476H64.677V58.7165H65.6904V51.1476Z" fill="#212255"/>
<path d="M71.4371 53.9054H72.4497V58.7162H71.4371V57.76C71.2511 58.0843 70.9846 58.355 70.6633 58.546C70.3419 58.737 69.9767 58.8418 69.603 58.8501C69.2944 58.8523 68.9892 58.7865 68.7089 58.6576C68.4286 58.5286 68.1802 58.3395 67.9811 58.1038C67.5329 57.6077 67.2921 56.9585 67.3084 56.29C67.3012 55.6372 67.5438 55.0062 67.9866 54.5264C68.1806 54.2916 68.4238 54.1022 68.6991 53.9718C68.9743 53.8413 69.2749 53.7729 69.5795 53.7715C69.9584 53.7721 70.3296 53.879 70.6508 54.08C70.9783 54.2757 71.2492 54.5531 71.4371 54.8851V53.9054ZM71.5765 56.3253C71.5793 56.1149 71.5389 55.9061 71.4577 55.7119C71.3764 55.5178 71.2561 55.3425 71.1042 55.1968C70.9567 55.0484 70.7814 54.9306 70.5883 54.8501C70.3951 54.7696 70.188 54.728 69.9787 54.7277C69.7695 54.7274 69.5623 54.7684 69.3689 54.8484C69.1756 54.9283 68.9999 55.0457 68.852 55.1937C68.7006 55.3333 68.58 55.5028 68.4978 55.6916C68.4155 55.8803 68.3735 56.0841 68.3742 56.29C68.37 56.5049 68.4091 56.7184 68.4891 56.9178C68.5692 57.1172 68.6886 57.2984 68.8402 57.4506C68.9874 57.6018 69.1633 57.722 69.3575 57.8042C69.5518 57.8864 69.7606 57.9288 69.9716 57.9291C70.1825 57.9294 70.3914 57.8875 70.5859 57.8059C70.7804 57.7242 70.9567 57.6045 71.1042 57.4538C71.2555 57.3076 71.3754 57.1322 71.4566 56.9382C71.5378 56.7441 71.5786 56.5356 71.5765 56.3253Z" fill="#212255"/>
<path d="M74.5343 52.5055H75.5477V53.905H76.5493V54.8322H75.5477V58.7157H74.5343V54.8322H73.7363V53.8932H74.5343V52.5055Z" fill="#212255"/>
<path d="M77.4099 56.2904C77.4119 55.9606 77.482 55.6347 77.6158 55.3332C77.7496 55.0318 77.9443 54.7612 78.1876 54.5385C78.4177 54.2966 78.6946 54.1038 79.0013 53.9719C79.3081 53.84 79.6384 53.7717 79.9723 53.771C80.3094 53.7691 80.6434 53.8349 80.9545 53.9648C81.2656 54.0946 81.5473 54.2857 81.7829 54.5268C82.0274 54.7508 82.2225 55.0234 82.3559 55.327C82.4892 55.6307 82.5579 55.9587 82.5575 56.2904C82.5581 56.6241 82.4911 56.9545 82.3605 57.2617C82.23 57.5688 82.0385 57.8463 81.7978 58.0775C81.5744 58.3205 81.303 58.5147 81.0008 58.6477C80.6986 58.7807 80.3722 58.8498 80.042 58.8504C79.6984 58.8537 79.3576 58.7878 79.0399 58.6566C78.7223 58.5254 78.4343 58.3317 78.1931 58.0869C77.9451 57.8581 77.7474 57.5803 77.6126 57.271C77.4777 56.9617 77.4087 56.6278 77.4099 56.2904ZM81.5793 56.2935C81.5802 56.0931 81.5392 55.8947 81.4589 55.711C81.3787 55.5273 81.261 55.3625 81.1134 55.2269C80.9686 55.0812 80.7961 54.966 80.606 54.8883C80.4159 54.8105 80.2121 54.7718 80.0068 54.7743C79.797 54.7713 79.5886 54.8103 79.3942 54.8891C79.1997 54.968 79.0229 55.085 78.8744 55.2332C78.7231 55.3725 78.6026 55.5419 78.5209 55.7307C78.4392 55.9194 78.3979 56.1231 78.3998 56.3288C78.4002 56.53 78.4433 56.7288 78.5262 56.9121C78.6091 57.0954 78.7299 57.2591 78.8807 57.3923C79.0293 57.5384 79.2052 57.6538 79.3984 57.7319C79.5917 57.81 79.7984 57.8492 80.0068 57.8473C80.2124 57.8483 80.416 57.8074 80.6053 57.7272C80.7946 57.6469 80.9656 57.529 81.1079 57.3805C81.2568 57.2414 81.3755 57.0731 81.4566 56.8861C81.5377 56.6991 81.5795 56.4973 81.5793 56.2935Z" fill="#212255"/>
<path d="M85.0087 53.9053V54.8967C85.1762 54.5731 85.4001 54.282 85.6696 54.0368C85.9098 53.8516 86.2078 53.7576 86.5107 53.7713C86.6529 53.7785 86.7937 53.8019 86.9305 53.841L86.6219 54.856C86.4955 54.8265 86.3669 54.8068 86.2374 54.7972C86.0771 54.7937 85.9178 54.8238 85.7699 54.8856C85.6219 54.9474 85.4885 55.0395 85.3783 55.1559C85.264 55.2746 85.1745 55.4149 85.115 55.5686C85.0556 55.7223 85.0274 55.8863 85.0322 56.051V58.716H84.0188V53.9053H85.0087Z" fill="#212255"/>
<path d="M87.78 53.905H88.9297L90.6714 56.5191L91.8766 53.905H92.9213L89.6768 60.9736H88.6188L90.2046 57.5325L87.78 53.905Z" fill="#212255"/>
<path d="M43.0779 64.9341L46.5809 72.6495H45.519L44.6583 70.7481H41.5101L40.6588 72.6495H39.6047L43.0779 64.9341ZM43.0756 67.2529L41.8891 69.9023H44.2753L43.0756 67.2529Z" fill="#212255"/>
<path d="M47.4769 67.8385H48.4903V70.5497C48.4903 71.3861 48.8571 71.804 49.5906 71.8035C49.7367 71.8101 49.8823 71.7833 50.0165 71.7253C50.1507 71.6672 50.2699 71.5793 50.3651 71.4683C50.568 71.2066 50.6693 70.8803 50.6502 70.5497V67.8385H51.6518V70.7134C51.661 70.9884 51.6136 71.2623 51.5124 71.5181C51.4112 71.774 51.2585 72.0063 51.0637 72.2005C50.652 72.5754 50.1153 72.7832 49.5585 72.7832C49.0017 72.7832 48.465 72.5754 48.0533 72.2005C47.8594 71.9989 47.7084 71.76 47.6093 71.4983C47.5102 71.2367 47.4652 70.9577 47.4769 70.6781V67.8385Z" fill="#212255"/>
<path d="M53.4391 66.439H54.4525V67.8384H55.4541V68.7657H54.4525V72.6492H53.4391V68.7657H52.6411V67.8267H53.4391V66.439Z" fill="#212255"/>
<path d="M56.3621 65.0801H57.3754V68.6253C57.5988 68.3523 57.8629 68.1153 58.1586 67.9229C58.429 67.7701 58.7362 67.6945 59.0466 67.7044C59.2459 67.7034 59.4431 67.7448 59.6252 67.8256C59.8073 67.9065 59.9701 68.025 60.1031 68.1734C60.2476 68.3221 60.3613 68.4979 60.4378 68.6906C60.5142 68.8833 60.5519 69.0892 60.5487 69.2965V72.6491H59.5353V69.5815C59.5486 69.319 59.4668 69.0604 59.3051 68.8532C59.2317 68.7638 59.1387 68.6926 59.0333 68.6451C58.9279 68.5975 58.8129 68.575 58.6974 68.5791C58.521 68.5773 58.3463 68.6133 58.1851 68.6846C58.0238 68.7559 57.8796 68.861 57.7623 68.9926C57.5064 69.2631 57.3674 69.6235 57.3754 69.9958V72.6491H56.3621V65.0801Z" fill="#212255"/>
<path d="M61.7766 70.2232C61.7786 69.8934 61.8487 69.5675 61.9825 69.2661C62.1163 68.9646 62.311 68.694 62.5543 68.4713C62.7845 68.2295 63.0613 68.0369 63.3681 67.9051C63.6749 67.7733 64.0052 67.7051 64.339 67.7046C64.6761 67.7025 65.0101 67.7683 65.3211 67.898C65.6322 68.0277 65.914 68.2187 66.1496 68.4596C66.394 68.6837 66.5891 68.9563 66.7225 69.2599C66.8558 69.5635 66.9245 69.8916 66.9242 70.2232C66.9247 70.557 66.8577 70.8875 66.7271 71.1948C66.5966 71.5021 66.4052 71.7797 66.1645 72.0111C65.9409 72.2539 65.6695 72.4478 65.3673 72.5807C65.0652 72.7136 64.7388 72.7825 64.4087 72.7833C64.0651 72.7865 63.7243 72.7206 63.4066 72.5894C63.089 72.4583 62.801 72.2645 62.5598 72.0197C62.3118 71.7909 62.1141 71.5131 61.9793 71.2038C61.8444 70.8945 61.7754 70.5606 61.7766 70.2232ZM65.946 70.2263C65.9469 70.0259 65.9059 69.8275 65.8256 69.6438C65.7454 69.4602 65.6277 69.2953 65.4801 69.1597C65.3353 69.014 65.1628 68.8989 64.9727 68.8211C64.7826 68.7433 64.5788 68.7046 64.3735 68.707C64.1637 68.704 63.9553 68.7431 63.7609 68.8219C63.5664 68.9007 63.3896 69.0177 63.2411 69.166C63.0898 69.3052 62.9693 69.4747 62.8876 69.6634C62.8059 69.8522 62.7646 70.0559 62.7665 70.2616C62.7669 70.4627 62.81 70.6616 62.8929 70.8449C62.9758 71.0282 63.0966 71.1918 63.2474 71.3251C63.396 71.4712 63.5719 71.5866 63.7651 71.6647C63.9584 71.7427 64.1651 71.782 64.3735 71.7801C64.5791 71.7811 64.7828 71.7402 64.972 71.6599C65.1613 71.5797 65.3323 71.4618 65.4746 71.3133C65.6235 71.1741 65.7422 71.0058 65.8233 70.8188C65.9044 70.6318 65.9462 70.4302 65.946 70.2263Z" fill="#212255"/>
<path d="M69.3751 67.8383V68.8298C69.5427 68.5062 69.7665 68.2151 70.0361 67.9699C70.2762 67.7847 70.5742 67.6907 70.8772 67.7045C71.0193 67.7116 71.1601 67.735 71.2969 67.7742L70.9884 68.7891C70.8619 68.7596 70.7334 68.7399 70.6039 68.7304C70.4436 68.7268 70.2843 68.7569 70.1363 68.8187C69.9884 68.8805 69.855 68.9726 69.7448 69.089C69.6304 69.2077 69.5408 69.348 69.4814 69.5017C69.4219 69.6554 69.3938 69.8194 69.3986 69.9842V72.6492H68.3853V67.8384L69.3751 67.8383Z" fill="#212255"/>
<path d="M72.2686 66.2581C72.2678 66.1561 72.2881 66.055 72.3283 65.9612C72.3684 65.8674 72.4276 65.7829 72.502 65.7131C72.5737 65.6392 72.6597 65.5807 72.7548 65.5411C72.8498 65.5015 72.9519 65.4817 73.0549 65.4828C73.2605 65.4828 73.4577 65.5645 73.6031 65.7099C73.7485 65.8553 73.8302 66.0525 73.8302 66.2581C73.8302 66.4638 73.7485 66.661 73.6031 66.8064C73.4577 66.9518 73.2605 67.0334 73.0549 67.0334C72.9522 67.0348 72.8503 67.0154 72.7552 66.9764C72.6602 66.9374 72.5741 66.8795 72.502 66.8063C72.4271 66.7362 72.3677 66.6512 72.3275 66.5569C72.2873 66.4625 72.2672 66.3607 72.2686 66.2581ZM72.5545 67.8385H73.5561V72.6493H72.5545V67.8385Z" fill="#212255"/>
<path d="M75.6337 66.439H76.6471V67.8384H77.6487V68.7657H76.6471V72.6492H75.6337V68.7657H74.8357V67.8267H75.6337V66.439Z" fill="#212255"/>
<path d="M78.4695 67.8385H79.6191L81.3616 70.4518L82.5661 67.8385H83.6107L80.3662 74.9063H79.3082L80.8941 71.4652L78.4695 67.8385Z" fill="#212255"/>
</svg>
